HIERARCHY
ROOT Hips
{
	OFFSET 0.000000 88.474243 0.000000
	CHANNELS 6 Xposition Yposition Zposition Zrotation Yrotation Xrotation 
	JOINT Hips_Spine
	{
		OFFSET 0.000000 0.000000 0.000000
		CHANNELS 3 Zrotation Yrotation Xrotation
		JOINT Spine
		{
			OFFSET 0.005100 8.711998 -0.691000
			CHANNELS 3 Zrotation Yrotation Xrotation
			JOINT Spine1
			{
				OFFSET -0.009200 8.660301 -1.275000
				CHANNELS 3 Zrotation Yrotation Xrotation
				JOINT Spine2
				{
					OFFSET 0.006300 9.852501 -1.857000
					CHANNELS 3 Zrotation Yrotation Xrotation
					JOINT Spine2_Neck
					{
						OFFSET 0.000000 0.000000 0.000000
						CHANNELS 3 Zrotation Yrotation Xrotation
						JOINT Neck
						{
							OFFSET 0.016300 11.420799 -0.263300
							CHANNELS 3 Zrotation Yrotation Xrotation
							End Site #name: Head
							{
								OFFSET -0.019200 9.262405 2.362500
							}
						}
					}
					JOINT Spine2_LeftShoulder
					{
						OFFSET 0.000000 0.000000 0.000000
						CHANNELS 3 Zrotation Yrotation Xrotation
						JOINT LeftShoulder
						{
							OFFSET 5.616900 6.732201 -0.345700
							CHANNELS 3 Zrotation Yrotation Xrotation
							JOINT LeftArm
							{
								OFFSET 10.664888 -0.183372 -2.440700
								CHANNELS 3 Zrotation Yrotation Xrotation
								JOINT LeftForeArm
								{
									OFFSET 27.459126 0.000000 0.000000
									CHANNELS 3 Zrotation Yrotation Xrotation
									End Site #name: LeftHand
									{
										OFFSET 21.306858 0.000000 0.000000
									}
								}
							}
						}
					}
					JOINT Spine2_RightShoulder
					{
						OFFSET 0.000000 0.000000 0.000000
						CHANNELS 3 Zrotation Yrotation Xrotation
						JOINT RightShoulder
						{
							OFFSET -5.580300 6.737503 -0.344400
							CHANNELS 3 Zrotation Yrotation Xrotation
							JOINT RightArm
							{
								OFFSET -10.679335 -0.188484 -2.383900
								CHANNELS 3 Zrotation Yrotation Xrotation
								JOINT RightForeArm
								{
									OFFSET -27.503529 0.000000 0.000000
									CHANNELS 3 Zrotation Yrotation Xrotation
									End Site #name: RightHand
									{
										OFFSET -21.306808 0.000000 0.000000
									}
								}
							}
						}
					}
				}
			}
		}
	}
	JOINT Hips_LeftUpLeg
	{
		OFFSET 0.000000 0.000000 0.000000
		CHANNELS 3 Zrotation Yrotation Xrotation
		JOINT LeftUpLeg
		{
			OFFSET 6.857700 -6.739601 0.312100
			CHANNELS 3 Zrotation Yrotation Xrotation
			JOINT LeftLeg
			{
				OFFSET -0.367590 -34.731552 -4.572400
				CHANNELS 3 Zrotation Yrotation Xrotation
				End Site #name: LeftFoot
				{
					OFFSET 0.367590 -34.656704 -6.067400
				}
			}
		}
	}
	JOINT Hips_RightUpLeg
	{
		OFFSET 0.000000 0.000000 0.000000
		CHANNELS 3 Zrotation Yrotation Xrotation
		JOINT RightUpLeg
		{
			OFFSET -6.876100 -6.733299 0.301000
			CHANNELS 3 Zrotation Yrotation Xrotation
			JOINT RightLeg
			{
				OFFSET 0.347353 -34.795158 -4.515900
				CHANNELS 3 Zrotation Yrotation Xrotation
				End Site #name: RightFoot
				{
					OFFSET -0.347353 -34.589367 -6.070300
				}
			}
		}
	}
}
MOTION
Frames: 17
Frame Time: 0.041667
0.588544 0.003195 -0.962615 -1.879982 3.887755 -3.498503 0.000000 0.000000 0.000000 0.045073 1.281222 1.651253 -1.902648 0.524836 5.271008 0.000000 0.000000 0.000000 -2.173668 0.485428 5.012110 -0.258954 -0.347435 6.148805 -2.122872 0.319550 5.595001 -1.680585 4.188216 -0.679034 -69.703963 -11.461682 56.823304 0.380799 -38.176983 0.277096 -1.937580 0.452683 4.840637 1.496708 8.570633 2.689298 65.828327 4.253666 46.119928 1.209402 77.395872 1.351363 0.000000 0.000000 -0.000000 3.847697 13.675667 -11.590497 3.945388 8.843152 15.232952 0.000000 -0.000000 0.000000 -3.053837 -9.213237 -9.979943 -2.095097 -3.807990 12.610608 
0.482772 0.001121 -0.995730 -1.824550 3.904620 -3.499734 0.000000 0.000000 0.000000 0.062177 1.275725 1.653220 -1.882845 0.517400 5.257590 0.000000 0.000000 0.000000 -2.150175 0.479407 5.001511 -0.266330 -0.345544 6.173172 -2.103195 0.314358 5.578502 -1.676257 4.199770 -0.680915 -69.742688 -11.463870 56.791563 0.381255 -38.207402 0.272837 -1.917158 0.444880 4.830363 1.483131 8.598303 2.694056 65.860872 4.216574 46.140107 1.182198 77.288261 1.323975 0.000000 0.000000 -0.000000 3.885739 13.759866 -11.606422 3.954003 8.828279 15.235797 0.000000 -0.000000 0.000000 -3.021643 -9.199637 -9.986406 -2.078999 -3.786531 12.606451 
0.377863 -0.000948 -1.028754 -1.769839 3.915394 -3.500445 0.000000 0.000000 0.000000 0.077068 1.270239 1.650492 -1.859571 0.508526 5.244873 0.000000 0.000000 0.000000 -2.120869 0.470870 4.995430 -0.270942 -0.340959 6.196411 -2.077844 0.307875 5.565668 -1.668671 4.209542 -0.682518 -69.781193 -11.481572 56.734229 0.382152 -38.231631 0.268349 -1.890949 0.435119 4.821730 1.467272 8.634271 2.698110 65.866829 4.220942 46.155384 1.153918 77.159318 1.293955 0.000000 0.000000 -0.000000 3.925913 13.845520 -11.627045 3.963514 8.812853 15.249108 0.000000 -0.000000 0.000000 -2.989982 -9.194770 -9.992783 -2.057878 -3.754587 12.601655 
0.274270 -0.002937 -1.061666 -1.716146 3.926090 -3.499661 0.000000 0.000000 0.000000 0.093880 1.261220 1.652194 -1.833733 0.497841 5.234317 0.000000 0.000000 0.000000 -2.087934 0.461154 4.989093 -0.274946 -0.336046 6.218913 -2.050519 0.299932 5.553317 -1.667061 4.219045 -0.686327 -69.804210 -11.496171 56.675383 0.383495 -38.264396 0.262809 -1.862341 0.423665 4.815414 1.445918 8.669937 2.702364 65.838710 4.251965 46.190546 1.130885 77.068179 1.270218 0.000000 0.000000 -0.000000 3.964508 13.933593 -11.647321 3.974881 8.798283 15.263912 0.000000 -0.000000 0.000000 -2.957468 -9.185724 -9.999141 -2.034702 -3.719341 12.595392 
0.172531 -0.004931 -1.094672 -1.661504 3.934426 -3.499950 0.000000 0.000000 0.000000 0.117800 1.253418 1.651160 -1.806984 0.485346 5.223059 0.000000 0.000000 0.000000 -2.054748 0.450413 4.984927 -0.280665 -0.327268 6.237596 -2.021909 0.291180 5.539952 -1.666439 4.223513 -0.686715 -69.817491 -11.509079 56.613321 0.382858 -38.291163 0.259585 -1.832380 0.411171 4.809494 1.424831 8.703285 2.707537 65.751576 4.289527 46.206684 1.114740 77.021380 1.252267 0.000000 0.000000 -0.000000 3.999954 14.019837 -11.671725 3.985302 8.784727 15.282357 0.000000 -0.000000 0.000000 -2.928352 -9.180405 -10.009295 -2.012202 -3.687437 12.594511 
0.072380 -0.006835 -1.127672 -1.605866 3.946154 -3.498589 0.000000 0.000000 0.000000 0.144732 1.245059 1.655294 -1.781448 0.472591 5.212999 0.000000 0.000000 0.000000 -2.023366 0.439015 4.979779 -0.283586 -0.318640 6.253013 -1.995275 0.281651 5.526996 -1.663005 4.228533 -0.688523 -69.831328 -11.513498 56.550844 0.384469 -38.303684 0.255851 -1.804224 0.398184 4.804488 1.400057 8.734711 2.712358 65.622312 4.337319 46.238561 1.111837 77.072422 1.248850 0.000000 0.000000 -0.000000 4.032099 14.100772 -11.696024 3.994821 8.769783 15.301998 0.000000 -0.000000 0.000000 -2.901962 -9.174633 -10.023419 -1.995168 -3.665003 12.604905 
-0.026462 -0.008533 -1.160843 -1.548580 3.955118 -3.498604 0.000000 0.000000 0.000000 0.173586 1.236547 1.669384 -1.758754 0.460218 5.204492 0.000000 0.000000 0.000000 -1.994643 0.428392 4.975804 -0.287212 -0.308128 6.263640 -1.971155 0.272739 5.514727 -1.664986 4.234253 -0.690303 -69.832604 -11.512038 56.464622 0.383680 -38.309256 0.251917 -1.778972 0.385706 4.799855 1.379200 8.758496 2.716282 65.445530 4.380276 46.225188 1.119650 77.195306 1.255408 0.000000 0.000000 -0.000000 4.063140 14.179735 -11.714454 4.003777 8.756602 15.319998 0.000000 -0.000000 0.000000 -2.880910 -9.170645 -10.034195 -1.984233 -3.655643 12.611583 
-0.124264 -0.010132 -1.194301 -1.490221 3.970200 -3.498905 0.000000 0.000000 0.000000 0.201660 1.228455 1.688461 -1.738476 0.448634 5.195623 0.000000 0.000000 0.000000 -1.969274 0.418411 4.969880 -0.291497 -0.298873 6.275126 -1.950322 0.264187 5.499527 -1.667216 4.249324 -0.692600 -69.837487 -11.494007 56.374995 0.383459 -38.308545 0.250018 -1.756288 0.374234 4.794947 1.355734 8.778782 2.720915 65.238403 4.415134 46.185304 1.138948 77.383947 1.272940 0.000000 0.000000 -0.000000 4.089740 14.248985 -11.731181 4.012026 8.743413 15.329966 0.000000 -0.000000 0.000000 -2.864326 -9.167334 -10.047932 -1.978612 -3.655640 12.630601 
-0.221239 -0.011601 -1.228094 -1.430447 3.984971 -3.499614 0.000000 0.000000 0.000000 0.231052 1.220635 1.714242 -1.720158 0.438768 5.185889 0.000000 0.000000 0.000000 -1.947022 0.409725 4.961714 -0.298053 -0.292732 6.284810 -1.931083 0.256631 5.484955 -1.672156 4.258694 -0.696497 -69.852000 -11.476036 56.287965 0.384274 -38.282239 0.245342 -1.736767 0.364231 4.789004 1.329609 8.794382 2.724943 65.027588 4.433047 46.157515 1.164215 77.629475 1.297227 0.000000 0.000000 -0.000000 4.113312 14.310471 -11.742958 4.018973 8.730040 15.335057 0.000000 -0.000000 0.000000 -2.848193 -9.163110 -10.056071 -1.981035 -3.668129 12.640443 
-0.317098 -0.012879 -1.262201 -1.368242 4.002762 -3.499916 0.000000 0.000000 0.000000 0.260696 1.212608 1.746117 -1.704625 0.429980 5.176042 0.000000 0.000000 0.000000 -1.928583 0.402103 4.953963 -0.308396 -0.284613 6.292733 -1.914230 0.250048 5.468568 -1.674683 4.270560 -0.700383 -69.858247 -11.434349 56.208213 0.384919 -38.225899 0.241803 -1.718531 0.355054 4.782497 1.307315 8.810226 2.729399 64.832296 4.432277 46.121586 1.192133 77.871507 1.323677 0.000000 0.000000 -0.000000 4.132184 14.362630 -11.755029 4.025537 8.718691 15.338346 0.000000 -0.000000 0.000000 -2.831224 -9.160661 -10.065775 -1.991405 -3.689217 12.654596 
-0.411588 -0.014017 -1.296657 -1.304699 4.021637 -3.499364 0.000000 0.000000 0.000000 0.287403 1.206037 1.773734 -1.690175 0.421495 5.166342 0.000000 0.000000 0.000000 -1.909781 0.394938 4.944883 -0.320906 -0.274617 6.297898 -1.899749 0.244259 5.452602 -1.681000 4.282336 -0.704538 -69.877081 -11.393161 56.140376 0.385268 -38.165824 0.238591 -1.701836 0.346831 4.775533 1.280059 8.823842 2.731848 64.686977 4.407864 46.112644 1.217605 78.060791 1.347088 0.000000 0.000000 -0.000000 4.149614 14.414150 -11.760271 4.029994 8.708935 15.334603 0.000000 -0.000000 0.000000 -2.816363 -9.161556 -10.071399 -2.005720 -3.714689 12.664636 
-0.504395 -0.015005 -1.331464 -1.239717 4.042461 -3.498353 0.000000 0.000000 0.000000 0.311042 1.199342 1.802337 -1.677274 0.414608 5.155436 0.000000 0.000000 0.000000 -1.893338 0.388985 4.937142 -0.331630 -0.266487 6.298845 -1.885775 0.239519 5.436315 -1.680917 4.297032 -0.708465 -69.899103 -11.350065 56.071700 0.388583 -38.076273 0.233768 -1.686102 0.339984 4.768191 1.259806 8.836031 2.733240 64.591618 4.369917 46.097214 1.230076 78.158203 1.356689 0.000000 0.000000 -0.000000 4.164243 14.457961 -11.767083 4.034569 8.700503 15.331194 0.000000 -0.000000 0.000000 -2.802981 -9.160975 -10.081391 -2.021841 -3.740350 12.682786 
-0.595268 -0.015883 -1.366612 -1.174575 4.062876 -3.495263 0.000000 0.000000 0.000000 0.329691 1.193428 1.823288 -1.664829 0.409279 5.146885 0.000000 0.000000 0.000000 -1.876537 0.384305 4.929983 -0.340070 -0.255894 6.296803 -1.872140 0.236227 5.423823 -1.682843 4.310718 -0.713160 -69.921740 -11.302196 55.981313 0.390985 -37.953421 0.229505 -1.671422 0.334729 4.762244 1.238060 8.842543 2.732655 64.570503 4.319161 46.168192 1.228678 78.122945 1.352080 0.000000 0.000000 -0.000000 4.174720 14.500884 -11.773534 4.038834 8.689411 15.328894 0.000000 -0.000000 0.000000 -2.791358 -9.164345 -10.087904 -2.040363 -3.771585 12.696442 
-0.682735 -0.016652 -1.402092 -1.111096 4.083418 -3.490004 0.000000 0.000000 0.000000 0.341476 1.187741 1.835578 -1.650889 0.404448 5.139362 0.000000 0.000000 0.000000 -1.857812 0.380338 4.927154 -0.344119 -0.245399 6.295604 -1.856731 0.233584 5.413406 -1.680934 4.318828 -0.717879 -69.948035 -11.254201 55.913000 0.394829 -37.813150 0.222759 -1.654600 0.329951 4.758674 1.219428 8.843568 2.728452 64.614024 4.271290 46.275200 1.201413 77.942638 1.320197 0.000000 0.000000 -0.000000 4.187547 14.536066 -11.779499 4.041518 8.686742 15.325168 0.000000 -0.000000 0.000000 -2.782249 -9.168297 -10.096451 -2.059552 -3.802029 12.713237 
-0.765546 -0.017259 -1.437987 -1.050126 4.098522 -3.482026 0.000000 0.000000 0.000000 0.350951 1.181437 1.845719 -1.635428 0.399889 5.132810 0.000000 0.000000 0.000000 -1.836850 0.376428 4.925413 -0.343169 -0.232740 6.291400 -1.839264 0.231278 5.405856 -1.678311 4.321860 -0.720879 -69.969529 -11.235788 55.851838 0.398592 -37.658269 0.217474 -1.635181 0.324928 4.755950 1.203554 8.836897 2.719739 64.740136 4.239860 46.451643 1.147148 77.532700 1.257991 0.000000 0.000000 -0.000000 4.194051 14.562533 -11.782757 4.042612 8.682324 15.314610 0.000000 -0.000000 0.000000 -2.774844 -9.174636 -10.109172 -2.073000 -3.826839 12.734472 
-0.842321 -0.017741 -1.474144 -0.990944 4.111996 -3.468575 0.000000 0.000000 0.000000 0.353589 1.174174 1.840754 -1.616421 0.393917 5.122512 0.000000 0.000000 0.000000 -1.812425 0.372095 4.922832 -0.338443 -0.219215 6.283077 -1.817717 0.228466 5.397170 -1.679332 4.319395 -0.725150 -69.974803 -11.233164 55.771056 0.402691 -37.515994 0.209601 -1.612573 0.318943 4.750799 1.193677 8.815932 2.706886 64.976742 4.253375 46.703868 1.044021 76.506404 1.143040 0.000000 0.000000 -0.000000 4.196659 14.579777 -11.796915 4.043429 8.679365 15.317489 0.000000 0.000000 0.000000 -2.771424 -9.179424 -10.127275 -2.082926 -3.849037 12.761546 
-0.911692 -0.018088 -1.510672 -0.932338 4.123624 -3.451457 0.000000 0.000000 0.000000 0.354720 1.164222 1.831478 -1.595452 0.386678 5.109020 0.000000 0.000000 0.000000 -1.783402 0.366255 4.917000 -0.329409 -0.207396 6.270615 -1.793951 0.223950 5.380823 -1.683022 4.307032 -0.726691 -69.965640 -11.239054 55.717485 0.408004 -37.343478 0.201864 -1.586020 0.311802 4.741465 1.204274 8.784570 2.690947 65.308728 4.306612 47.023070 0.927042 75.058273 1.009369 0.000000 0.000000 -0.000000 4.192970 14.587555 -11.814060 4.043894 8.680403 15.317754 0.000000 0.000000 0.000000 -2.772641 -9.185912 -10.146946 -2.087251 -3.867586 12.786114 
